<mxfile host="Electron" modified="2024-07-14T21:56:36.488Z" agent="Mozilla/5.0 (Windows NT 10.0; Win64; x64) AppleWebKit/537.36 (KHTML, like Gecko) draw.io/24.6.4 Chrome/124.0.6367.207 Electron/30.0.6 Safari/537.36" etag="zRxNO5iq7L1Z7v4BMSwl" version="24.6.4" type="device">
  <diagram name="Page-1" id="2YBvvXClWsGukQMizWep">
    <mxGraphModel dx="1713" dy="545" grid="1" gridSize="10" guides="1" tooltips="1" connect="1" arrows="1" fold="1" page="1" pageScale="1" pageWidth="850" pageHeight="1100" math="0" shadow="0">
      <root>
        <mxCell id="0" />
        <mxCell id="1" parent="0" />
        <mxCell id="Q83ysAbJNSpsVjNNnmaQ-28" value="CommentController" style="shape=umlLifeline;perimeter=lifelinePerimeter;whiteSpace=wrap;html=1;container=0;dropTarget=0;collapsible=0;recursiveResize=0;outlineConnect=0;portConstraint=eastwest;newEdgeStyle={&quot;edgeStyle&quot;:&quot;elbowEdgeStyle&quot;,&quot;elbow&quot;:&quot;vertical&quot;,&quot;curved&quot;:0,&quot;rounded&quot;:0};fontStyle=4" parent="1" vertex="1">
          <mxGeometry x="-36.5" y="49" width="120" height="688" as="geometry" />
        </mxCell>
        <mxCell id="Q83ysAbJNSpsVjNNnmaQ-30" value="CommentModel" style="shape=umlLifeline;perimeter=lifelinePerimeter;whiteSpace=wrap;html=1;container=0;dropTarget=0;collapsible=0;recursiveResize=0;outlineConnect=0;portConstraint=eastwest;newEdgeStyle={&quot;edgeStyle&quot;:&quot;elbowEdgeStyle&quot;,&quot;elbow&quot;:&quot;vertical&quot;,&quot;curved&quot;:0,&quot;rounded&quot;:0};fontStyle=4;size=37;" parent="1" vertex="1">
          <mxGeometry x="153.5" y="49" width="120" height="716" as="geometry" />
        </mxCell>
        <mxCell id="Q83ysAbJNSpsVjNNnmaQ-32" value="" style="html=1;verticalAlign=bottom;endArrow=block;edgeStyle=elbowEdgeStyle;elbow=horizontal;curved=0;rounded=0;fontStyle=4" parent="1" source="Q83ysAbJNSpsVjNNnmaQ-38" target="Q83ysAbJNSpsVjNNnmaQ-29" edge="1">
          <mxGeometry relative="1" as="geometry">
            <mxPoint x="-182.5" y="161" as="sourcePoint" />
            <Array as="points">
              <mxPoint x="-122.5" y="161" />
            </Array>
            <mxPoint x="-22.5" y="161.06" as="targetPoint" />
            <mxPoint as="offset" />
          </mxGeometry>
        </mxCell>
        <mxCell id="Q83ysAbJNSpsVjNNnmaQ-33" value="" style="html=1;verticalAlign=bottom;endArrow=block;edgeStyle=elbowEdgeStyle;elbow=horizontal;curved=0;rounded=0;fontStyle=4" parent="1" source="Q83ysAbJNSpsVjNNnmaQ-62" edge="1">
          <mxGeometry relative="1" as="geometry">
            <mxPoint x="-410" y="135" as="sourcePoint" />
            <Array as="points">
              <mxPoint x="-316.5" y="135" />
            </Array>
            <mxPoint x="-256.5" y="135" as="targetPoint" />
            <mxPoint as="offset" />
          </mxGeometry>
        </mxCell>
        <mxCell id="Q83ysAbJNSpsVjNNnmaQ-34" value="" style="html=1;verticalAlign=bottom;endArrow=block;edgeStyle=elbowEdgeStyle;elbow=vertical;curved=0;rounded=0;fontStyle=4;" parent="1" target="Q83ysAbJNSpsVjNNnmaQ-31" edge="1">
          <mxGeometry x="-0.0279" y="2" relative="1" as="geometry">
            <mxPoint x="29.5" y="180" as="sourcePoint" />
            <Array as="points">
              <mxPoint x="116.5" y="180" />
            </Array>
            <mxPoint x="203.5" y="180" as="targetPoint" />
            <mxPoint as="offset" />
          </mxGeometry>
        </mxCell>
        <mxCell id="Q83ysAbJNSpsVjNNnmaQ-35" value="" style="html=1;verticalAlign=bottom;endArrow=block;dashed=1;endSize=8;edgeStyle=elbowEdgeStyle;elbow=vertical;curved=0;rounded=0;endFill=1;fontStyle=4" parent="1" target="Q83ysAbJNSpsVjNNnmaQ-29" edge="1">
          <mxGeometry relative="1" as="geometry">
            <mxPoint x="-6.5" y="260" as="targetPoint" />
            <Array as="points">
              <mxPoint x="93.5" y="260" />
            </Array>
            <mxPoint x="207.5" y="259" as="sourcePoint" />
          </mxGeometry>
        </mxCell>
        <mxCell id="Q83ysAbJNSpsVjNNnmaQ-36" value="" style="html=1;verticalAlign=bottom;endArrow=block;dashed=1;endSize=8;edgeStyle=elbowEdgeStyle;elbow=vertical;curved=0;rounded=0;endFill=1;fontStyle=4" parent="1" source="Q83ysAbJNSpsVjNNnmaQ-29" target="Q83ysAbJNSpsVjNNnmaQ-38" edge="1">
          <mxGeometry x="-0.0945" relative="1" as="geometry">
            <mxPoint x="-186.5" y="278" as="targetPoint" />
            <Array as="points">
              <mxPoint x="-91.5" y="278" />
            </Array>
            <mxPoint x="-16.5" y="278" as="sourcePoint" />
            <mxPoint as="offset" />
          </mxGeometry>
        </mxCell>
        <mxCell id="Q83ysAbJNSpsVjNNnmaQ-37" value="Router" style="shape=umlLifeline;perimeter=lifelinePerimeter;whiteSpace=wrap;html=1;container=0;dropTarget=0;collapsible=0;recursiveResize=0;outlineConnect=0;portConstraint=eastwest;newEdgeStyle={&quot;edgeStyle&quot;:&quot;elbowEdgeStyle&quot;,&quot;elbow&quot;:&quot;vertical&quot;,&quot;curved&quot;:0,&quot;rounded&quot;:0};fontStyle=4" parent="1" vertex="1">
          <mxGeometry x="-300.5" y="49" width="100" height="666" as="geometry" />
        </mxCell>
        <mxCell id="Q83ysAbJNSpsVjNNnmaQ-39" value="Return Error" style="html=1;verticalAlign=bottom;endArrow=block;dashed=1;endSize=8;edgeStyle=elbowEdgeStyle;elbow=vertical;curved=0;rounded=0;endFill=1;fontStyle=0" parent="1" edge="1">
          <mxGeometry relative="1" as="geometry">
            <mxPoint x="29.5" y="364" as="targetPoint" />
            <Array as="points">
              <mxPoint x="94.5" y="364" />
            </Array>
            <mxPoint x="208.5" y="363" as="sourcePoint" />
            <mxPoint as="offset" />
          </mxGeometry>
        </mxCell>
        <mxCell id="Q83ysAbJNSpsVjNNnmaQ-40" value="&lt;font style=&quot;font-size: 10px;&quot;&gt;Return Error&lt;/font&gt;" style="html=1;verticalAlign=bottom;endArrow=block;dashed=1;endSize=8;edgeStyle=elbowEdgeStyle;elbow=horizontal;curved=0;rounded=0;endFill=1;fontStyle=0" parent="1" edge="1">
          <mxGeometry x="-0.0945" relative="1" as="geometry">
            <mxPoint x="-246.5" y="371" as="targetPoint" />
            <Array as="points">
              <mxPoint x="-92.5" y="371" />
            </Array>
            <mxPoint x="17.5" y="371" as="sourcePoint" />
            <mxPoint as="offset" />
          </mxGeometry>
        </mxCell>
        <mxCell id="Q83ysAbJNSpsVjNNnmaQ-42" value="" style="html=1;verticalAlign=bottom;endArrow=block;dashed=1;endSize=8;edgeStyle=elbowEdgeStyle;elbow=vertical;curved=0;rounded=0;endFill=1;fontStyle=4;entryX=0.577;entryY=0.369;entryDx=0;entryDy=0;entryPerimeter=0;" parent="1" source="Q83ysAbJNSpsVjNNnmaQ-38" edge="1" target="Q83ysAbJNSpsVjNNnmaQ-61">
          <mxGeometry x="-0.0945" relative="1" as="geometry">
            <mxPoint x="-400" y="296" as="targetPoint" />
            <Array as="points" />
            <mxPoint x="-260.5" y="296" as="sourcePoint" />
            <mxPoint as="offset" />
          </mxGeometry>
        </mxCell>
        <mxCell id="Q83ysAbJNSpsVjNNnmaQ-44" value="&lt;font style=&quot;font-size: 10px;&quot;&gt;Show error message&amp;nbsp;&lt;/font&gt;" style="html=1;verticalAlign=bottom;endArrow=block;dashed=1;endSize=8;edgeStyle=elbowEdgeStyle;elbow=vertical;curved=0;rounded=0;endFill=1;fontStyle=0" parent="1" edge="1" target="Q83ysAbJNSpsVjNNnmaQ-61">
          <mxGeometry x="-0.0945" relative="1" as="geometry">
            <mxPoint x="-402.5" y="378" as="targetPoint" />
            <Array as="points" />
            <mxPoint x="-255.5" y="378" as="sourcePoint" />
            <mxPoint as="offset" />
          </mxGeometry>
        </mxCell>
        <mxCell id="Q83ysAbJNSpsVjNNnmaQ-46" value="Return Comments" style="html=1;verticalAlign=bottom;endArrow=block;dashed=1;endSize=8;edgeStyle=elbowEdgeStyle;elbow=vertical;curved=0;rounded=0;endFill=1;fontStyle=0" parent="1" edge="1">
          <mxGeometry relative="1" as="geometry">
            <mxPoint x="29.5" y="487" as="targetPoint" />
            <Array as="points">
              <mxPoint x="94.5" y="487" />
            </Array>
            <mxPoint x="208.5" y="486" as="sourcePoint" />
            <mxPoint as="offset" />
          </mxGeometry>
        </mxCell>
        <mxCell id="Q83ysAbJNSpsVjNNnmaQ-47" value="&lt;font style=&quot;font-size: 10px;&quot;&gt;Return Comments&lt;/font&gt;" style="html=1;verticalAlign=bottom;endArrow=block;dashed=1;endSize=8;edgeStyle=elbowEdgeStyle;elbow=horizontal;curved=0;rounded=0;endFill=1;fontStyle=0" parent="1" edge="1">
          <mxGeometry x="-0.0945" relative="1" as="geometry">
            <mxPoint x="-247.5" y="501" as="targetPoint" />
            <Array as="points">
              <mxPoint x="-93.5" y="501" />
            </Array>
            <mxPoint x="16.5" y="501" as="sourcePoint" />
            <mxPoint as="offset" />
          </mxGeometry>
        </mxCell>
        <mxCell id="Q83ysAbJNSpsVjNNnmaQ-48" value="&lt;font style=&quot;font-size: 10px;&quot;&gt;Show Comments&lt;/font&gt;" style="html=1;verticalAlign=bottom;endArrow=block;dashed=1;endSize=8;edgeStyle=elbowEdgeStyle;elbow=vertical;curved=0;rounded=0;endFill=1;fontStyle=0" parent="1" edge="1" target="Q83ysAbJNSpsVjNNnmaQ-62">
          <mxGeometry x="-0.0945" relative="1" as="geometry">
            <mxPoint x="-402.5" y="514" as="targetPoint" />
            <Array as="points" />
            <mxPoint x="-255.5" y="514" as="sourcePoint" />
            <mxPoint as="offset" />
          </mxGeometry>
        </mxCell>
        <mxCell id="Q83ysAbJNSpsVjNNnmaQ-49" value="&lt;span style=&quot;color: rgb(0, 0, 0); font-family: Helvetica; font-size: 10px; font-style: normal; font-variant-ligatures: normal; font-variant-caps: normal; font-weight: 400; letter-spacing: normal; orphans: 2; text-align: center; text-indent: 0px; text-transform: none; widows: 2; word-spacing: 0px; -webkit-text-stroke-width: 0px; white-space: nowrap; background-color: rgb(255, 255, 255); text-decoration-thickness: initial; text-decoration-style: initial; text-decoration-color: initial; display: inline !important; float: none;&quot;&gt;Return 404 message&lt;/span&gt;" style="text;whiteSpace=wrap;html=1;container=0;" parent="1" vertex="1">
          <mxGeometry x="-139.50197204589847" y="254.99766855875657" width="83" height="36" as="geometry" />
        </mxCell>
        <mxCell id="Q83ysAbJNSpsVjNNnmaQ-50" value="&lt;span style=&quot;color: rgb(0, 0, 0); font-family: Helvetica; font-size: 11px; font-style: normal; font-variant-ligatures: normal; font-variant-caps: normal; font-weight: 400; letter-spacing: normal; orphans: 2; text-align: center; text-indent: 0px; text-transform: none; widows: 2; word-spacing: 0px; -webkit-text-stroke-width: 0px; white-space: nowrap; background-color: rgb(255, 255, 255); text-decoration-thickness: initial; text-decoration-style: initial; text-decoration-color: initial; display: inline !important; float: none;&quot;&gt;Return nothing&lt;/span&gt;" style="text;whiteSpace=wrap;html=1;container=0;" parent="1" vertex="1">
          <mxGeometry x="83.49802795410153" y="235.99766855875657" width="106" height="37" as="geometry" />
        </mxCell>
        <mxCell id="Q83ysAbJNSpsVjNNnmaQ-51" value="&lt;span style=&quot;color: rgb(0, 0, 0); font-family: Helvetica; font-size: 11px; font-style: normal; font-variant-ligatures: normal; font-variant-caps: normal; font-weight: 400; letter-spacing: normal; orphans: 2; text-align: center; text-indent: 0px; text-transform: none; widows: 2; word-spacing: 0px; -webkit-text-stroke-width: 0px; white-space: nowrap; background-color: rgb(255, 255, 255); text-decoration-thickness: initial; text-decoration-style: initial; text-decoration-color: initial; display: inline !important; float: none;&quot;&gt;findUserComments&lt;/span&gt;" style="text;whiteSpace=wrap;html=1;container=0;" parent="1" vertex="1">
          <mxGeometry x="60" y="159.98" width="162.75" height="24.98" as="geometry" />
        </mxCell>
        <mxCell id="Q83ysAbJNSpsVjNNnmaQ-52" value="&lt;span style=&quot;color: rgb(0, 0, 0); font-family: Helvetica; font-size: 11px; font-style: normal; font-variant-ligatures: normal; font-variant-caps: normal; font-weight: 400; letter-spacing: normal; orphans: 2; text-align: center; text-indent: 0px; text-transform: none; widows: 2; word-spacing: 0px; -webkit-text-stroke-width: 0px; white-space: nowrap; background-color: rgb(255, 255, 255); text-decoration-thickness: initial; text-decoration-style: initial; text-decoration-color: initial; display: inline !important; float: none;&quot;&gt;getUserComments&lt;/span&gt;" style="text;whiteSpace=wrap;html=1;container=0;" parent="1" vertex="1">
          <mxGeometry x="-179.38" y="135" width="162.75" height="24.98" as="geometry" />
        </mxCell>
        <mxCell id="Q83ysAbJNSpsVjNNnmaQ-54" value="&lt;span style=&quot;color: rgb(0, 0, 0); font-family: Helvetica; font-size: 10px; font-style: normal; font-variant-ligatures: normal; font-variant-caps: normal; font-weight: 400; letter-spacing: normal; orphans: 2; text-align: center; text-indent: 0px; text-transform: none; widows: 2; word-spacing: 0px; -webkit-text-stroke-width: 0px; white-space: nowrap; background-color: rgb(255, 255, 255); text-decoration-thickness: initial; text-decoration-style: initial; text-decoration-color: initial; display: inline !important; float: none;&quot;&gt;Show not found message&lt;/span&gt;" style="text;whiteSpace=wrap;html=1;container=0;" parent="1" vertex="1">
          <mxGeometry x="-382.4953053792317" y="272.9943352254232" width="121" height="36" as="geometry" />
        </mxCell>
        <mxCell id="Q83ysAbJNSpsVjNNnmaQ-53" value="&lt;span style=&quot;color: rgb(0, 0, 0); font-family: Helvetica; font-style: normal; font-variant-ligatures: normal; font-variant-caps: normal; font-weight: 400; letter-spacing: normal; orphans: 2; text-align: center; text-indent: 0px; text-transform: none; widows: 2; word-spacing: 0px; -webkit-text-stroke-width: 0px; white-space: nowrap; background-color: rgb(255, 255, 255); text-decoration-thickness: initial; text-decoration-style: initial; text-decoration-color: initial; float: none; display: inline !important;&quot;&gt;&lt;font style=&quot;font-size: 10px;&quot;&gt;Send GET request for userID&lt;/font&gt;&lt;/span&gt;" style="text;whiteSpace=wrap;html=1;container=0;" parent="1" vertex="1">
          <mxGeometry x="-398.5" y="114.02000000000001" width="142.5" height="24.98" as="geometry" />
        </mxCell>
        <mxCell id="Q83ysAbJNSpsVjNNnmaQ-29" value="" style="html=1;points=[];perimeter=orthogonalPerimeter;outlineConnect=0;targetShapes=umlLifeline;portConstraint=eastwest;newEdgeStyle={&quot;edgeStyle&quot;:&quot;elbowEdgeStyle&quot;,&quot;elbow&quot;:&quot;vertical&quot;,&quot;curved&quot;:0,&quot;rounded&quot;:0};fontStyle=4;container=0;" parent="1" vertex="1">
          <mxGeometry x="18.5" y="139" width="10" height="398" as="geometry" />
        </mxCell>
        <mxCell id="Q83ysAbJNSpsVjNNnmaQ-31" value="" style="html=1;points=[];perimeter=orthogonalPerimeter;outlineConnect=0;targetShapes=umlLifeline;portConstraint=eastwest;newEdgeStyle={&quot;edgeStyle&quot;:&quot;elbowEdgeStyle&quot;,&quot;elbow&quot;:&quot;vertical&quot;,&quot;curved&quot;:0,&quot;rounded&quot;:0};fontStyle=4;container=0;" parent="1" vertex="1">
          <mxGeometry x="208.5" y="139" width="10" height="369" as="geometry" />
        </mxCell>
        <mxCell id="Q83ysAbJNSpsVjNNnmaQ-38" value="" style="html=1;points=[];perimeter=orthogonalPerimeter;outlineConnect=0;targetShapes=umlLifeline;portConstraint=eastwest;newEdgeStyle={&quot;edgeStyle&quot;:&quot;elbowEdgeStyle&quot;,&quot;elbow&quot;:&quot;vertical&quot;,&quot;curved&quot;:0,&quot;rounded&quot;:0};fontStyle=4;container=0;" parent="1" vertex="1">
          <mxGeometry x="-255.5" y="129" width="10" height="411" as="geometry" />
        </mxCell>
        <mxCell id="Q83ysAbJNSpsVjNNnmaQ-60" value="" style="group" parent="1" vertex="1" connectable="0">
          <mxGeometry x="-470" y="49" width="100" height="666" as="geometry" />
        </mxCell>
        <mxCell id="Q83ysAbJNSpsVjNNnmaQ-61" value="React App" style="shape=umlLifeline;perimeter=lifelinePerimeter;whiteSpace=wrap;html=1;container=0;dropTarget=0;collapsible=0;recursiveResize=0;outlineConnect=0;portConstraint=eastwest;newEdgeStyle={&quot;edgeStyle&quot;:&quot;elbowEdgeStyle&quot;,&quot;elbow&quot;:&quot;vertical&quot;,&quot;curved&quot;:0,&quot;rounded&quot;:0};fontStyle=4;size=40;" parent="Q83ysAbJNSpsVjNNnmaQ-60" vertex="1">
          <mxGeometry width="100" height="666" as="geometry" />
        </mxCell>
        <mxCell id="Q83ysAbJNSpsVjNNnmaQ-62" value="" style="html=1;points=[];perimeter=orthogonalPerimeter;outlineConnect=0;targetShapes=umlLifeline;portConstraint=eastwest;newEdgeStyle={&quot;edgeStyle&quot;:&quot;elbowEdgeStyle&quot;,&quot;elbow&quot;:&quot;vertical&quot;,&quot;curved&quot;:0,&quot;rounded&quot;:0};fontStyle=4;container=0;" parent="Q83ysAbJNSpsVjNNnmaQ-60" vertex="1">
          <mxGeometry x="45" y="74" width="10" height="411" as="geometry" />
        </mxCell>
        <mxCell id="Q83ysAbJNSpsVjNNnmaQ-64" value="" style="html=1;verticalAlign=bottom;endArrow=block;edgeStyle=elbowEdgeStyle;elbow=horizontal;curved=0;rounded=0;fontStyle=4" parent="Q83ysAbJNSpsVjNNnmaQ-60" source="Q83ysAbJNSpsVjNNnmaQ-55" edge="1">
          <mxGeometry relative="1" as="geometry">
            <mxPoint x="-120" y="79" as="sourcePoint" />
            <Array as="points">
              <mxPoint x="-7.5" y="79" />
            </Array>
            <mxPoint x="45" y="79" as="targetPoint" />
            <mxPoint as="offset" />
          </mxGeometry>
        </mxCell>
        <mxCell id="Q83ysAbJNSpsVjNNnmaQ-67" value="" style="html=1;verticalAlign=bottom;endArrow=block;dashed=1;endSize=8;edgeStyle=elbowEdgeStyle;elbow=vertical;curved=0;rounded=0;endFill=1;fontStyle=4;" parent="Q83ysAbJNSpsVjNNnmaQ-60" target="Q83ysAbJNSpsVjNNnmaQ-55" edge="1">
          <mxGeometry x="-0.0945" relative="1" as="geometry">
            <mxPoint x="-100" y="252" as="targetPoint" />
            <Array as="points" />
            <mxPoint x="45" y="252" as="sourcePoint" />
            <mxPoint as="offset" />
          </mxGeometry>
        </mxCell>
        <mxCell id="Q83ysAbJNSpsVjNNnmaQ-68" value="&lt;span style=&quot;color: rgb(0, 0, 0); font-family: Helvetica; font-size: 10px; font-style: normal; font-variant-ligatures: normal; font-variant-caps: normal; font-weight: 400; letter-spacing: normal; orphans: 2; text-align: center; text-indent: 0px; text-transform: none; widows: 2; word-spacing: 0px; -webkit-text-stroke-width: 0px; white-space: nowrap; background-color: rgb(255, 255, 255); text-decoration-thickness: initial; text-decoration-style: initial; text-decoration-color: initial; display: inline !important; float: none;&quot;&gt;Display not found message&lt;/span&gt;" style="text;whiteSpace=wrap;html=1;container=0;" parent="Q83ysAbJNSpsVjNNnmaQ-60" vertex="1">
          <mxGeometry x="-82.4953053792317" y="228.99433522542319" width="121" height="36" as="geometry" />
        </mxCell>
        <mxCell id="Q83ysAbJNSpsVjNNnmaQ-65" value="&lt;span style=&quot;color: rgb(0, 0, 0); font-family: Helvetica; font-style: normal; font-variant-ligatures: normal; font-variant-caps: normal; font-weight: 400; letter-spacing: normal; orphans: 2; text-align: center; text-indent: 0px; text-transform: none; widows: 2; word-spacing: 0px; -webkit-text-stroke-width: 0px; white-space: nowrap; background-color: rgb(255, 255, 255); text-decoration-thickness: initial; text-decoration-style: initial; text-decoration-color: initial; float: none; display: inline !important;&quot;&gt;&lt;font style=&quot;font-size: 10px;&quot;&gt;click Comment&amp;nbsp;&lt;/font&gt;&lt;/span&gt;" style="text;whiteSpace=wrap;html=1;container=0;" parent="1" vertex="1">
          <mxGeometry x="-550" y="104.02" width="80" height="24.98" as="geometry" />
        </mxCell>
        <mxCell id="Q83ysAbJNSpsVjNNnmaQ-41" value="&lt;font style=&quot;font-size: 12px;&quot;&gt;No comments found&lt;/font&gt;" style="shape=umlFrame;whiteSpace=wrap;html=1;pointerEvents=0;width=130;height=15;container=0;" parent="1" vertex="1">
          <mxGeometry x="-740" y="215" width="1004.5" height="105" as="geometry" />
        </mxCell>
        <mxCell id="Q83ysAbJNSpsVjNNnmaQ-45" value="&lt;font style=&quot;font-size: 12px;&quot;&gt;Success&lt;/font&gt;" style="shape=umlFrame;whiteSpace=wrap;html=1;pointerEvents=0;width=61;height=16;container=0;" parent="1" vertex="1">
          <mxGeometry x="-740" y="454" width="1006" height="105" as="geometry" />
        </mxCell>
        <mxCell id="Q83ysAbJNSpsVjNNnmaQ-43" value="Error" style="shape=umlFrame;whiteSpace=wrap;html=1;pointerEvents=0;width=60;height=15;container=0;" parent="1" vertex="1">
          <mxGeometry x="-740" y="333" width="1006.5" height="105" as="geometry" />
        </mxCell>
        <mxCell id="Q83ysAbJNSpsVjNNnmaQ-74" value="&lt;font style=&quot;font-size: 10px;&quot;&gt;Display Comments&lt;/font&gt;" style="html=1;verticalAlign=bottom;endArrow=block;dashed=1;endSize=8;edgeStyle=elbowEdgeStyle;elbow=vertical;curved=0;rounded=0;endFill=1;fontStyle=0" parent="1" source="Q83ysAbJNSpsVjNNnmaQ-62" edge="1">
          <mxGeometry x="-0.0945" relative="1" as="geometry">
            <mxPoint x="-583.5" y="520" as="targetPoint" />
            <Array as="points" />
            <mxPoint x="-430" y="520" as="sourcePoint" />
            <mxPoint as="offset" />
          </mxGeometry>
        </mxCell>
        <mxCell id="ESe-uwdjDYBdoLh7ssOK-2" value="" style="group" vertex="1" connectable="0" parent="1">
          <mxGeometry x="-599" y="63" width="18" height="657" as="geometry" />
        </mxCell>
        <mxCell id="ESe-uwdjDYBdoLh7ssOK-3" value="" style="endArrow=none;dashed=1;html=1;rounded=0;" edge="1" parent="ESe-uwdjDYBdoLh7ssOK-2">
          <mxGeometry width="50" height="50" relative="1" as="geometry">
            <mxPoint x="9" y="656.9999999999999" as="sourcePoint" />
            <mxPoint x="9" y="57.50279329608937" as="targetPoint" />
          </mxGeometry>
        </mxCell>
        <mxCell id="ESe-uwdjDYBdoLh7ssOK-4" value="User" style="shape=umlActor;verticalLabelPosition=bottom;verticalAlign=top;html=1;outlineConnect=0;" vertex="1" parent="ESe-uwdjDYBdoLh7ssOK-2">
          <mxGeometry y="-28.13966480446927" width="18" height="54.052625698324015" as="geometry" />
        </mxCell>
        <mxCell id="Q83ysAbJNSpsVjNNnmaQ-55" value="" style="html=1;points=[];perimeter=orthogonalPerimeter;outlineConnect=0;targetShapes=umlLifeline;portConstraint=eastwest;newEdgeStyle={&quot;edgeStyle&quot;:&quot;elbowEdgeStyle&quot;,&quot;elbow&quot;:&quot;vertical&quot;,&quot;curved&quot;:0,&quot;rounded&quot;:0};fontStyle=4;container=0;" parent="1" vertex="1">
          <mxGeometry x="-595" y="123" width="10" height="411" as="geometry" />
        </mxCell>
        <mxCell id="Q83ysAbJNSpsVjNNnmaQ-72" value="" style="html=1;verticalAlign=bottom;endArrow=block;dashed=1;endSize=8;edgeStyle=elbowEdgeStyle;elbow=vertical;curved=0;rounded=0;endFill=1;fontStyle=4;" parent="1" source="Q83ysAbJNSpsVjNNnmaQ-62" edge="1">
          <mxGeometry x="-0.0945" relative="1" as="geometry">
            <mxPoint x="-585" y="387" as="targetPoint" />
            <Array as="points" />
            <mxPoint x="-430" y="387.01" as="sourcePoint" />
            <mxPoint as="offset" />
          </mxGeometry>
        </mxCell>
        <mxCell id="Q83ysAbJNSpsVjNNnmaQ-73" value="&lt;span style=&quot;color: rgb(0, 0, 0); font-family: Helvetica; font-size: 10px; font-style: normal; font-variant-ligatures: normal; font-variant-caps: normal; font-weight: 400; letter-spacing: normal; orphans: 2; text-align: center; text-indent: 0px; text-transform: none; widows: 2; word-spacing: 0px; -webkit-text-stroke-width: 0px; white-space: nowrap; background-color: rgb(255, 255, 255); text-decoration-thickness: initial; text-decoration-style: initial; text-decoration-color: initial; display: inline !important; float: none;&quot;&gt;Display error message&lt;/span&gt;" style="text;whiteSpace=wrap;html=1;container=0;" parent="1" vertex="1">
          <mxGeometry x="-557.4953053792317" y="364.0043352254232" width="121" height="36" as="geometry" />
        </mxCell>
      </root>
    </mxGraphModel>
  </diagram>
</mxfile>
